<svg width="150" height="150" viewBox="0 0 512 512" fill="none" xmlns="http://www.w3.org/2000/svg">
<path d="M341.125 397.875H270.188V362.903L345.381 312.75L270.188 262.597V227.625H341.125V142.5H270.188V114.125H341.125V85.75H383.688V57.375H341.125V29H170.875V57.375H71.5627V130.327C41.3336 138.021 23.0645 168.765 30.7586 198.994C35.8617 219.042 51.5158 234.696 71.5627 239.798V326.938H187.9L241.813 362.903V397.875H170.875V483H341.125V454.625H383.688V426.25H341.125V397.875ZM312.75 170.875V199.25H199.25V170.875H312.75ZM199.25 57.375H312.75V85.75H199.25V57.375ZM99.9377 85.75H170.875V114.125H241.813V142.5H170.875V170.875H140.486C135.319 151.008 119.805 135.494 99.9377 130.327V85.75ZM57.3752 185.062C57.3752 169.392 70.0792 156.688 85.7502 156.688C101.421 156.688 114.125 169.392 114.125 185.062C114.125 200.733 101.421 213.438 85.7502 213.438C70.0792 213.438 57.3752 200.733 57.3752 185.062ZM99.9377 298.562V239.798C119.805 234.631 135.319 219.117 140.486 199.25H170.875V227.625H241.813V262.597L187.9 298.562H99.9377ZM217.694 312.75L256 287.213L294.306 312.75L256 338.288L217.694 312.75ZM312.75 454.625H199.25V426.25H312.75V454.625Z" fill="url(#paint0_linear)"/>
<path d="M481.241 242.069C476.139 222.021 460.485 206.367 440.437 201.265V114.125H412.062V201.265C381.833 208.959 363.564 239.702 371.258 269.931C376.36 289.979 392.014 305.633 412.062 310.735V397.875H440.437V310.735C470.667 303.041 488.935 272.299 481.241 242.069ZM426.25 284.375C410.579 284.375 397.875 271.671 397.875 256C397.875 240.329 410.579 227.625 426.25 227.625C441.921 227.625 454.625 240.329 454.625 256C454.625 271.671 441.921 284.375 426.25 284.375Z" fill="url(#paint1_linear)"/>
<path d="M440.437 57.375H412.062V85.75H440.437V57.375Z" fill="url(#paint2_linear)"/>
<path d="M440.437 426.25H412.062V454.625H440.437V426.25Z" fill="url(#paint3_linear)"/>
<defs>
<linearGradient id="paint0_linear" x1="45.6098" y1="8.51462" x2="483" y2="518.988" gradientUnits="userSpaceOnUse">
<stop stop-color="#0FEBBE"/>
<stop offset="1" stop-color="#2722B0"/>
</linearGradient>
<linearGradient id="paint1_linear" x1="45.6098" y1="8.51462" x2="483" y2="518.988" gradientUnits="userSpaceOnUse">
<stop stop-color="#0FEBBE"/>
<stop offset="1" stop-color="#2722B0"/>
</linearGradient>
<linearGradient id="paint2_linear" x1="45.6098" y1="8.51462" x2="483" y2="518.988" gradientUnits="userSpaceOnUse">
<stop stop-color="#0FEBBE"/>
<stop offset="1" stop-color="#2722B0"/>
</linearGradient>
<linearGradient id="paint3_linear" x1="45.6098" y1="8.51462" x2="483" y2="518.988" gradientUnits="userSpaceOnUse">
<stop stop-color="#0FEBBE"/>
<stop offset="1" stop-color="#2722B0"/>
</linearGradient>
</defs>
</svg>
